<svg xmlns="http://www.w3.org/2000/svg" xmlns:xlink="http://www.w3.org/1999/xlink" viewBox="0 0 500 500"><defs><style>.cls-1{fill:none;}.cls-2{fill:#004358;}.cls-3{clip-path:url(#clip-path);}.cls-4{fill:#04b8f0;}.cls-5{fill:#d50006;opacity:0.83;isolation:isolate;}.cls-6{fill:#7ed958;}.cls-7{fill:#fff;}</style><clipPath id="clip-path"><polygon class="cls-1" points="-14 0 445.22 14.8 445.22 514.8 -14 500 -14 0"/></clipPath></defs><title>Монтажная область 1</title><g id="Слой_1" data-name="Слой 1"><rect class="cls-2" x="369.8" y="215.43" width="122.2" height="86.07" rx="43.04" ry="43.04"/><g class="cls-3"><path class="cls-4" d="M27.45,201.71v127.5a12.12,12.12,0,0,0,17.73,10.71l111.13-58.54a12.09,12.09,0,0,0,.76-21l-111.13-69A12.1,12.1,0,0,0,27.45,201.71Z"/><path class="cls-5" d="M80.12,229V371.76a13.56,13.56,0,0,0,19.84,12l124.41-65.56a13.51,13.51,0,0,0,.83-23.46L100.79,217.47A13.54,13.54,0,0,0,80.12,229Z"/><path class="cls-6" d="M79.12,144.06V286.8A13.56,13.56,0,0,0,99,298.8l124.41-65.56a13.51,13.51,0,0,0,.83-23.46L99.79,132.6A13.49,13.49,0,0,0,79.12,144.06Z"/><path class="cls-2" d="M122,301.46H417c26.25,0,45.88-39,22.32-50.57C416,239.45,392,254.63,458.65,215.46H122a43,43,0,1,0,0,86Z"/><path class="cls-7" d="M192.05,253.21h-7l-5.41-8.48q-2.18,0-4.2,0a26.64,26.64,0,0,1-4-.37v8.89h-7.28V226.15q3.48-.4,7.3-.6t7.49-.21h1.13a18.78,18.78,0,0,1,5.62.71,9.52,9.52,0,0,1,3.55,1.92,6.42,6.42,0,0,1,1.86,2.83,10.92,10.92,0,0,1,.53,3.43v1.62a10.44,10.44,0,0,1-1,4.62,6.85,6.85,0,0,1-3.6,3.22l5,7.91ZM179,231.8q-1.41,0-3.49.08t-4.1.28v5.74q1.89.24,3.59.3t2.75.06a24.59,24.59,0,0,0,3.76-.22,4.79,4.79,0,0,0,2-.67,1.71,1.71,0,0,0,.74-1.13,9.67,9.67,0,0,0,.12-1.65,6.56,6.56,0,0,0-.08-1,1.46,1.46,0,0,0-.58-.91,3.79,3.79,0,0,0-1.6-.63A16.5,16.5,0,0,0,179,231.8Z"/><path class="cls-7" d="M201.67,240.74v-2.1a19.12,19.12,0,0,1,.68-5.18,10,10,0,0,1,2.41-4.22,11.9,11.9,0,0,1,4.62-2.85,21.78,21.78,0,0,1,7.31-1h1.46a21.78,21.78,0,0,1,7.31,1,12,12,0,0,1,4.63,2.85,10,10,0,0,1,2.4,4.22,18.89,18.89,0,0,1,.69,5.18v2.1a18.84,18.84,0,0,1-.69,5.17,10,10,0,0,1-2.4,4.22,11.83,11.83,0,0,1-4.63,2.85,21.78,21.78,0,0,1-7.31,1h-1.46a21.78,21.78,0,0,1-7.31-1,11.74,11.74,0,0,1-4.62-2.85,10,10,0,0,1-2.41-4.22A19.08,19.08,0,0,1,201.67,240.74Zm7.27-1.05q0,1.53.14,3a5,5,0,0,0,.93,2.52,5.3,5.3,0,0,0,2.5,1.74,19.15,19.15,0,0,0,9.82,0,5.24,5.24,0,0,0,2.5-1.74,5.06,5.06,0,0,0,.93-2.52,28.66,28.66,0,0,0,.15-3,27.91,27.91,0,0,0-.15-2.95,5.05,5.05,0,0,0-.93-2.51,5.19,5.19,0,0,0-2.5-1.73,18.87,18.87,0,0,0-9.82,0,5.25,5.25,0,0,0-2.5,1.73,5,5,0,0,0-.93,2.51Q208.94,238.15,208.94,239.68Z"/><path class="cls-7" d="M269.54,226.15v6.47H250.91v4H265.5v6.46H250.91v10.1h-7.27V226.15Z"/><path class="cls-7" d="M279.56,226.15h7.27v27.07h-7.27Z"/><path class="cls-7" d="M314.06,253.21h-7.27v-20.6H296.28v-6.47H324.6v6.47H314.06Z"/><path class="cls-6" d="M139.53,284.08a19.51,19.51,0,0,0,3.41-.23,6.31,6.31,0,0,0,1.86-.56,1.63,1.63,0,0,0,.79-.77,2.24,2.24,0,0,0,.16-.79,1.81,1.81,0,0,0-.34-1.15,2.38,2.38,0,0,0-1.09-.67,9.14,9.14,0,0,0-2-.34q-1.23-.1-3-.14l-2.39-.12a23.63,23.63,0,0,1-2.82-.34,18.71,18.71,0,0,1-2.87-.77,8.46,8.46,0,0,1-2.53-1.42,6.81,6.81,0,0,1-1.79-2.28,7.39,7.39,0,0,1-.69-3.35v-.53a9,9,0,0,1,.63-3.33,6.66,6.66,0,0,1,2.14-2.81,11.3,11.3,0,0,1,4.08-1.92,24.74,24.74,0,0,1,6.4-.7H141a41.65,41.65,0,0,1,10.55,1.33v6.67q-3-.69-5.84-1.1a43,43,0,0,0-5.88-.4,20.89,20.89,0,0,0-3.43.22,6.27,6.27,0,0,0-1.88.57,1.64,1.64,0,0,0-.79.73,1.9,1.9,0,0,0-.16.74,1.86,1.86,0,0,0,.34,1.17,2.2,2.2,0,0,0,1.12.69,9.19,9.19,0,0,0,2,.34q1.22.11,2.91.15l2.31.1a21.8,21.8,0,0,1,2.8.32,16.77,16.77,0,0,1,2.91.79,8.89,8.89,0,0,1,2.57,1.43,7,7,0,0,1,1.84,2.31,7.44,7.44,0,0,1,.7,3.37v.52a9,9,0,0,1-.62,3.32,6.75,6.75,0,0,1-2.16,2.78,11.37,11.37,0,0,1-4.08,1.92,24.42,24.42,0,0,1-6.43.71h-1.45a55.12,55.12,0,0,1-6.2-.34q-3-.35-5.92-.95v-6.79q3.27.73,6.76,1.17A51.94,51.94,0,0,0,139.53,284.08Z"/><path class="cls-7" d="M189.38,262.67v6.47H170.76v4h14.58v6.46H170.76v3.64h18.62v6.46H163.49V262.67Z"/><path class="cls-7" d="M225.3,289.73H199.4V262.67h7.27v20.61H225.3Z"/><path class="cls-7" d="M261.21,289.73H235.32V262.67h7.27v20.61h18.62Z"/><path class="cls-7" d="M297.13,262.67v6.47H278.51v4h14.58v6.46H278.51v3.64h18.62v6.46h-25.9V262.67Z"/><path class="cls-7" d="M335,289.73h-7l-5.42-8.48q-2.18,0-4.2,0a26.64,26.64,0,0,1-4-.37v8.89h-7.27V262.67q3.47-.4,7.29-.6t7.5-.2h1.13a19,19,0,0,1,5.61.7,9.63,9.63,0,0,1,3.56,1.92,6.54,6.54,0,0,1,1.86,2.83,11.18,11.18,0,0,1,.52,3.43v1.62a10.46,10.46,0,0,1-1,4.63A6.81,6.81,0,0,1,330,280.2l5,7.92Zm-13-21.41q-1.42,0-3.5.08t-4.1.28v5.74q1.9.24,3.6.3t2.74.06a24.46,24.46,0,0,0,3.76-.22,4.89,4.89,0,0,0,2-.66,1.74,1.74,0,0,0,.75-1.14,9.67,9.67,0,0,0,.12-1.65,6.56,6.56,0,0,0-.08-1,1.45,1.45,0,0,0-.59-.91,3.71,3.71,0,0,0-1.59-.63A16.49,16.49,0,0,0,322,268.33Z"/><path class="cls-7" d="M345.09,286.7v-.48a5.41,5.41,0,0,1,.2-1.48,3.06,3.06,0,0,1,.68-1.23,3.42,3.42,0,0,1,1.32-.83,6.18,6.18,0,0,1,2.08-.3h.32a6.19,6.19,0,0,1,2.08.3,3.35,3.35,0,0,1,1.31.83,3,3,0,0,1,.69,1.23,5.45,5.45,0,0,1,.2,1.48v.48a5.38,5.38,0,0,1-.2,1.5,3,3,0,0,1-.69,1.21,3.32,3.32,0,0,1-1.31.83,6.19,6.19,0,0,1-2.08.3h-.32a6.18,6.18,0,0,1-2.08-.3,3.4,3.4,0,0,1-1.32-.83,3.06,3.06,0,0,1-.68-1.21A5.35,5.35,0,0,1,345.09,286.7Z"/><path class="cls-7" d="M383.42,284.2h-3.71l-7.6-10.63v16.16h-7.27V262.67h7.27l9.46,13.86L391,262.67h7.27v27.07H391l-.12-15.94Z"/><path class="cls-7" d="M435.06,262.67v6.47H416.43v4H431v6.46H416.43v3.64h18.63v6.46h-25.9V262.67Z"/><rect class="cls-6" x="136" y="290" width="6" height="5.5"/><rect class="cls-6" x="136" y="257" width="6" height="6"/><path class="cls-4" d="M141,239.88a14.12,14.12,0,0,0,3.32-.3,3.75,3.75,0,0,0,1.71-.85,2.1,2.1,0,0,0,.63-1.28,14.76,14.76,0,0,0,.08-1.61,15.62,15.62,0,0,0-.08-1.64,2,2,0,0,0-.61-1.27,3.55,3.55,0,0,0-1.61-.83,12.59,12.59,0,0,0-3.15-.3q-1.3,0-3.38.08t-4.1.28v7.35q1.9.25,3.6.31T141,239.88ZM154,235v1.62a13.68,13.68,0,0,1-.5,3.77,7.56,7.56,0,0,1-1.72,3.07,8.17,8.17,0,0,1-3.29,2.08,15.21,15.21,0,0,1-5.23.77h-1.13q-2.19,0-4.27,0a28.7,28.7,0,0,1-4.06-.36v7.27h-7.27V226.15q3.48-.4,7.29-.6t7.5-.21h1.13a17.37,17.37,0,0,1,5.61.77,9.34,9.34,0,0,1,3.56,2.08,7.22,7.22,0,0,1,1.86,3.09A13.37,13.37,0,0,1,154,235Z"/></g></g></svg>