<svg width="24" height="25" viewBox="0 0 24 25" fill="none" xmlns="http://www.w3.org/2000/svg">
<g clip-path="url(#clip0_1_245)">
<g clip-path="url(#clip1_1_245)">
<path d="M4 12.5V6.5C4 5.96957 4.21071 5.46086 4.58579 5.08579C4.96086 4.71071 5.46957 4.5 6 4.5H18C18.5304 4.5 19.0391 4.71071 19.4142 5.08579C19.7893 5.46086 20 5.96957 20 6.5V18.5C20 19.0304 19.7893 19.5391 19.4142 19.9142C19.0391 20.2893 18.5304 20.5 18 20.5H12" stroke="#212121" stroke-width="1.5" stroke-linecap="round" stroke-linejoin="round"/>
<path d="M4 10.5H20" stroke="#212121" stroke-width="1.5" stroke-linecap="round" stroke-linejoin="round"/>
<path d="M10 4.5V13.5" stroke="#212121" stroke-width="1.5" stroke-linecap="round" stroke-linejoin="round"/>
<path d="M5.281 21C6.38557 21 7.281 20.1046 7.281 19C7.281 17.8954 6.38557 17 5.281 17C4.17643 17 3.281 17.8954 3.281 19C3.281 20.1046 4.17643 21 5.281 21Z" stroke="#212121" stroke-width="1.5" stroke-linecap="round" stroke-linejoin="round"/>
<path d="M5.281 15.5V17" stroke="#212121" stroke-width="1.5" stroke-linecap="round" stroke-linejoin="round"/>
<path d="M5.281 21V22.5" stroke="#212121" stroke-width="1.5" stroke-linecap="round" stroke-linejoin="round"/>
<path d="M8.312 17.25L7.013 18" stroke="#212121" stroke-width="1.5" stroke-linecap="round" stroke-linejoin="round"/>
<path d="M3.55 20L2.25 20.75" stroke="#212121" stroke-width="1.5" stroke-linecap="round" stroke-linejoin="round"/>
<path d="M2.25 17.25L3.55 18" stroke="#212121" stroke-width="1.5" stroke-linecap="round" stroke-linejoin="round"/>
<path d="M7.013 20L8.313 20.75" stroke="#212121" stroke-width="1.5" stroke-linecap="round" stroke-linejoin="round"/>
</g>
</g>
<defs>
<clipPath id="clip0_1_245">
<rect width="24" height="24" fill="white" transform="translate(0 0.5)"/>
</clipPath>
<clipPath id="clip1_1_245">
<rect width="24" height="24" fill="white" transform="translate(0 0.5)"/>
</clipPath>
</defs>
</svg>
