<svg width="24" height="25" viewBox="0 0 24 25" fill="none" xmlns="http://www.w3.org/2000/svg">
<g clip-path="url(#clip0_1_839)">
<path d="M12 9.5C14.7614 9.5 17 8.15685 17 6.5C17 4.84315 14.7614 3.5 12 3.5C9.23858 3.5 7 4.84315 7 6.5C7 8.15685 9.23858 9.5 12 9.5Z" stroke="#212121" stroke-width="1.5" stroke-linecap="round" stroke-linejoin="round"/>
<path d="M7 6.5V10.5C7 12.157 9.239 13.5 12 13.5C14.761 13.5 17 12.157 17 10.5V6.5" stroke="#212121" stroke-width="1.5" stroke-linecap="round" stroke-linejoin="round"/>
<path d="M7 10.5V14.5C7 16.157 9.239 17.5 12 17.5C14.761 17.5 17 16.157 17 14.5V10.5" stroke="#212121" stroke-width="1.5" stroke-linecap="round" stroke-linejoin="round"/>
<path d="M7 14.5V18.5C7 20.157 9.239 21.5 12 21.5C14.761 21.5 17 20.157 17 18.5V14.5" stroke="#212121" stroke-width="1.5" stroke-linecap="round" stroke-linejoin="round"/>
</g>
<defs>
<clipPath id="clip0_1_839">
<rect width="24" height="24" fill="white" transform="translate(0 0.5)"/>
</clipPath>
</defs>
</svg>
