<svg width="24" height="25" viewBox="0 0 24 25" fill="none" xmlns="http://www.w3.org/2000/svg">
<g clip-path="url(#clip0_1_679)">
<g clip-path="url(#clip1_1_679)">
<path d="M4 16.5L10 9.5L15 14.5L20 8.5" stroke="#212121" stroke-width="1.5" stroke-linecap="round" stroke-linejoin="round"/>
<path d="M15 15.5C15.5523 15.5 16 15.0523 16 14.5C16 13.9477 15.5523 13.5 15 13.5C14.4477 13.5 14 13.9477 14 14.5C14 15.0523 14.4477 15.5 15 15.5Z" stroke="#212121" stroke-width="1.5" stroke-linecap="round" stroke-linejoin="round"/>
<path d="M10 10.5C10.5523 10.5 11 10.0523 11 9.5C11 8.94772 10.5523 8.5 10 8.5C9.44772 8.5 9 8.94772 9 9.5C9 10.0523 9.44772 10.5 10 10.5Z" stroke="#212121" stroke-width="1.5" stroke-linecap="round" stroke-linejoin="round"/>
<path d="M4 17.5C4.55228 17.5 5 17.0523 5 16.5C5 15.9477 4.55228 15.5 4 15.5C3.44772 15.5 3 15.9477 3 16.5C3 17.0523 3.44772 17.5 4 17.5Z" stroke="#212121" stroke-width="1.5" stroke-linecap="round" stroke-linejoin="round"/>
<path d="M20 9.5C20.5523 9.5 21 9.05228 21 8.5C21 7.94772 20.5523 7.5 20 7.5C19.4477 7.5 19 7.94772 19 8.5C19 9.05228 19.4477 9.5 20 9.5Z" stroke="#212121" stroke-width="1.5" stroke-linecap="round" stroke-linejoin="round"/>
</g>
</g>
<defs>
<clipPath id="clip0_1_679">
<rect width="24" height="24" fill="white" transform="translate(0 0.5)"/>
</clipPath>
<clipPath id="clip1_1_679">
<rect width="24" height="24" fill="white" transform="translate(0 0.5)"/>
</clipPath>
</defs>
</svg>
