<svg width="24" height="25" viewBox="0 0 24 25" fill="none" xmlns="http://www.w3.org/2000/svg">
<g clip-path="url(#clip0_1_721)">
<path d="M19 5.5H5C3.89543 5.5 3 6.39543 3 7.5V17.5C3 18.6046 3.89543 19.5 5 19.5H19C20.1046 19.5 21 18.6046 21 17.5V7.5C21 6.39543 20.1046 5.5 19 5.5Z" stroke="#212121" stroke-width="1.5" stroke-linecap="round" stroke-linejoin="round"/>
<path d="M14 9.5V15.5H15C15.5304 15.5 16.0391 15.2893 16.4142 14.9142C16.7893 14.5391 17 14.0304 17 13.5V11.5C17 10.9696 16.7893 10.4609 16.4142 10.0858C16.0391 9.71071 15.5304 9.5 15 9.5H14Z" stroke="#212121" stroke-width="1.5" stroke-linecap="round" stroke-linejoin="round"/>
<path d="M7 15.5V11C7 10.6022 7.15804 10.2206 7.43934 9.93934C7.72064 9.65804 8.10218 9.5 8.5 9.5C8.89782 9.5 9.27936 9.65804 9.56066 9.93934C9.84196 10.2206 10 10.6022 10 11V15.5" stroke="#212121" stroke-width="1.5" stroke-linecap="round" stroke-linejoin="round"/>
<path d="M7 13.5H10" stroke="#212121" stroke-width="1.5" stroke-linecap="round" stroke-linejoin="round"/>
</g>
<defs>
<clipPath id="clip0_1_721">
<rect width="24" height="24" fill="white" transform="translate(0 0.5)"/>
</clipPath>
</defs>
</svg>
