<svg width="24" height="25" viewBox="0 0 24 25" fill="none" xmlns="http://www.w3.org/2000/svg">
<g clip-path="url(#clip0_1_778)">
<path d="M19.5 13.0722L12 20.5002L4.5 13.0722M4.5 13.0722C4.00531 12.5908 3.61565 12.0122 3.35555 11.3728C3.09546 10.7334 2.97057 10.0471 2.98874 9.35711C3.00692 8.66709 3.16777 7.98831 3.46116 7.36351C3.75456 6.73871 4.17414 6.18143 4.69349 5.72676C5.21284 5.27208 5.82071 4.92987 6.47881 4.72166C7.13692 4.51345 7.83101 4.44376 8.51737 4.51698C9.20373 4.5902 9.8675 4.80473 10.4669 5.14708C11.0663 5.48943 11.5883 5.95218 12 6.50618C12.4135 5.9562 12.9361 5.4975 13.5351 5.15878C14.1341 4.82007 14.7965 4.60863 15.4809 4.5377C16.1654 4.46677 16.8571 4.53787 17.5128 4.74657C18.1685 4.95526 18.774 5.29705 19.2916 5.75054C19.8091 6.20403 20.2274 6.75946 20.5204 7.38207C20.8134 8.00468 20.9747 8.68106 20.9943 9.36889C21.0139 10.0567 20.8913 10.7412 20.6341 11.3794C20.377 12.0177 19.9909 12.596 19.5 13.0782" stroke="#212121" stroke-width="1.5" stroke-linecap="round" stroke-linejoin="round"/>
</g>
<defs>
<clipPath id="clip0_1_778">
<rect width="24" height="24" fill="white" transform="translate(0 0.5)"/>
</clipPath>
</defs>
</svg>
